# xmcd
#
# Track frame offsets: 
#        150
#        19122
#        32859
#        47376
#        62820
#        79697
#        100603
#        113772
#        128147
#        143385
#        159943
#        178128
#        198507
#        222783
#        244205
#
# Disc length: 3498 seconds
#
# Revision: 6
# Processed by: cddbd v1.5.2PL0 Copyright (c) Steve Scherf et al.
# Submitted via: ExactAudioCopyFreeDBPlugin 1.0
#
DISCID=c00da80f
DTITLE=Davis, Miles - Volume 1
DYEAR=1952
DGENRE=Jazz
TTITLE0=Dear Old Stockholm
TTITLE1=Chance It
TTITLE2=Donna
TTITLE3=Woody 'n' You
TTITLE4=Yesterdays
TTITLE5=How Deep Is The Ocean?
TTITLE6=Chance It ALTERNATE TAKE
TTITLE7=Donna ALTERNATE TAKE
TTITLE8=Woody 'n' You ALTERNATE TAKE
TTITLE9=Take Off
TTITLE10=Lazy Susan
TTITLE11=The Leap
TTITLE12=Well You Needn't
TTITLE13=Weirdo
TTITLE14=It Never Entered My Mind
EXTD=YEAR: 2001
EXTT0=
EXTT1=
EXTT2=
EXTT3=
EXTT4=
EXTT5=
EXTT6=
EXTT7=
EXTT8=
EXTT9=
EXTT10=
EXTT11=
EXTT12=
EXTT13=
EXTT14=
PLAYORDER=
